<svg id="svg" version="1.1" width="1000" height="1000" xmlns="http://www.w3.org/2000/svg" xmlns:xlink="http://www.w3.org/1999/xlink" style="display: block;"><g id="svgg"><path id="path0" d="M0.000 200.000 L 0.000 400.000 200.000 400.000 L 400.000 400.000 400.000 200.000 L 400.000 0.000 200.000 0.000 L 0.000 0.000 0.000 200.000 M103.200 140.500 C 103.891 142.315,104.985 145.150,105.629 146.800 C 106.273 148.450,108.410 154.120,110.377 159.400 L 113.954 169.000 94.077 169.200 C 72.496 169.417,73.697 169.293,70.345 171.649 L 69.290 172.390 65.821 167.771 C 61.684 162.264,61.582 163.092,67.000 158.195 C 69.420 156.007,72.480 153.210,73.800 151.979 C 78.556 147.542,86.226 140.566,87.470 139.545 C 88.739 138.503,89.986 138.281,99.200 137.454 C 99.970 137.385,100.902 137.299,101.271 137.264 C 101.763 137.217,102.278 138.081,103.200 140.500 M115.778 138.801 C 128.380 141.362,140.843 148.066,149.991 157.205 C 153.358 160.569,158.988 167.617,159.500 169.108 C 159.599 169.397,117.185 169.318,116.895 169.029 C 116.632 168.765,105.200 138.221,105.200 137.781 C 105.200 137.222,110.545 137.737,115.778 138.801 M80.568 141.916 C 79.670 142.732,75.440 146.644,71.168 150.609 C 63.716 157.525,49.327 170.671,41.842 177.401 C 37.832 181.007,37.765 180.874,40.655 175.071 C 48.174 159.975,62.148 147.433,77.769 141.759 C 82.353 140.094,82.560 140.105,80.568 141.916 M63.933 169.641 L 67.556 174.483 66.678 176.541 C 65.803 178.593,65.800 178.688,65.800 205.808 L 65.800 233.017 67.124 235.706 C 67.977 237.438,68.974 238.780,69.924 239.475 C 70.736 240.069,71.625 240.824,71.900 241.154 C 72.491 241.862,72.616 251.200,72.034 251.200 C 71.833 251.200,69.557 247.915,66.975 243.900 C 64.394 239.885,61.529 235.430,60.609 234.000 C 59.688 232.570,56.407 227.440,53.317 222.600 C 32.445 189.907,34.265 193.326,35.395 188.920 C 35.860 187.107,36.363 186.250,37.697 185.000 C 46.302 176.934,59.673 164.800,59.956 164.800 C 60.152 164.800,61.941 166.979,63.933 169.641 M182.176 186.976 C 183.509 188.821,186.489 192.912,188.797 196.066 C 191.105 199.220,194.724 204.167,196.839 207.059 L 200.684 212.319 205.271 206.059 C 207.793 202.617,212.513 196.155,215.760 191.700 C 219.007 187.245,221.739 183.600,221.832 183.600 C 221.924 183.600,222.000 193.500,222.000 205.600 L 222.000 227.600 217.608 227.600 L 213.215 227.600 213.108 218.825 L 213.000 210.050 206.842 218.605 L 200.685 227.160 195.140 219.480 C 192.090 215.256,189.246 211.350,188.820 210.800 C 188.046 209.802,188.044 209.816,188.022 218.700 L 188.000 227.600 183.600 227.600 L 179.200 227.600 179.200 205.333 C 179.200 193.087,179.324 183.191,179.476 183.343 C 179.628 183.495,180.843 185.130,182.176 186.976 M238.949 190.880 C 240.957 194.553,242.715 197.433,242.855 197.280 C 242.995 197.126,244.702 194.075,246.648 190.500 L 250.188 184.000 255.094 184.000 C 257.792 184.000,260.000 184.113,260.000 184.252 C 260.000 184.391,257.120 189.773,253.600 196.212 L 247.200 207.921 247.200 217.760 L 247.200 227.600 242.800 227.600 L 238.400 227.600 238.400 217.956 L 238.400 208.311 232.938 198.256 C 229.934 192.725,226.944 187.249,226.293 186.088 L 225.110 183.975 230.204 184.088 L 235.297 184.200 238.949 190.880 M283.680 184.446 C 286.407 185.021,290.955 187.235,293.000 188.985 L 294.600 190.353 291.553 193.420 L 288.507 196.487 286.474 195.088 C 273.026 185.837,258.366 204.837,270.396 215.926 C 274.586 219.788,283.717 220.028,287.033 216.363 C 288.108 215.176,288.587 215.398,291.592 218.476 C 294.931 221.895,294.875 221.583,292.465 223.352 C 281.893 231.113,267.759 228.774,260.660 218.089 C 249.734 201.641,264.293 180.363,283.680 184.446 M328.000 188.400 L 328.000 192.800 322.400 192.800 L 316.800 192.800 316.800 210.200 L 316.800 227.600 312.400 227.600 L 308.000 227.600 308.000 210.200 L 308.000 192.800 302.600 192.800 L 297.200 192.800 297.200 188.400 L 297.200 184.000 312.600 184.000 L 328.000 184.000 328.000 188.400 M344.129 190.598 C 346.070 194.223,347.784 197.267,347.938 197.362 C 348.092 197.457,349.817 194.563,351.771 190.931 C 355.887 183.282,355.011 183.943,360.842 184.087 L 365.437 184.200 358.919 196.174 L 352.400 208.148 352.400 217.874 L 352.400 227.600 348.000 227.600 L 343.600 227.600 343.600 217.820 L 343.600 208.041 337.372 196.581 C 333.947 190.278,331.048 184.869,330.929 184.560 C 330.752 184.098,331.582 184.001,335.657 184.004 L 340.600 184.007 344.129 190.598 M103.065 193.311 L 105.600 196.422 105.600 218.211 L 105.600 240.000 95.800 240.000 L 86.000 240.000 85.967 216.700 C 85.949 203.885,85.849 192.880,85.746 192.244 C 85.374 189.962,85.337 189.972,93.256 190.091 L 100.531 190.200 103.065 193.311 M88.400 195.000 L 88.400 196.400 93.800 196.400 L 99.200 196.400 99.200 195.000 L 99.200 193.600 93.800 193.600 L 88.400 193.600 88.400 195.000 M101.600 195.043 C 101.600 195.889,102.013 196.643,103.000 197.600 L 104.400 198.957 104.400 197.757 C 104.400 196.911,103.987 196.157,103.000 195.200 L 101.600 193.843 101.600 195.043 M47.400 218.205 C 55.446 230.752,73.544 259.097,77.614 265.527 C 79.191 268.016,80.416 270.118,80.337 270.196 C 79.738 270.796,68.658 265.477,63.600 262.162 C 43.283 248.847,30.123 221.220,33.737 199.471 L 34.058 197.542 37.329 202.572 C 39.128 205.338,43.660 212.373,47.400 218.205 M138.872 198.100 C 139.215 198.375,140.330 199.642,141.348 200.916 L 143.200 203.231 143.200 221.616 L 143.200 240.000 134.800 240.000 L 126.400 240.000 126.400 218.800 L 126.400 197.600 132.324 197.600 C 136.463 197.600,138.435 197.751,138.872 198.100 M128.473 201.900 L 128.600 203.000 133.100 203.113 L 137.600 203.226 137.600 202.013 L 137.600 200.800 132.973 200.800 L 128.347 200.800 128.473 201.900 M139.600 201.994 C 139.600 202.430,140.135 203.375,140.788 204.094 L 141.977 205.400 141.988 204.170 C 141.996 203.390,141.661 202.621,141.074 202.070 C 139.928 200.993,139.600 200.976,139.600 201.994 M88.314 202.802 C 88.072 204.451,87.896 204.400,93.867 204.400 L 99.200 204.400 99.200 203.000 L 99.200 201.600 93.845 201.600 L 88.491 201.600 88.314 202.802 M101.675 203.220 C 101.764 204.086,102.177 204.677,103.100 205.259 L 104.400 206.079 104.400 204.726 C 104.400 203.656,104.156 203.229,103.238 202.686 C 101.669 201.759,101.529 201.807,101.675 203.220 M128.400 208.800 L 128.400 210.000 133.000 210.000 L 137.600 210.000 137.600 208.800 L 137.600 207.600 133.000 207.600 L 128.400 207.600 128.400 208.800 M139.600 208.732 C 139.600 209.525,139.931 210.023,140.800 210.536 L 142.000 211.245 141.997 210.123 C 141.996 209.296,141.680 208.821,140.797 208.319 L 139.600 207.637 139.600 208.732 M88.400 211.000 L 88.400 212.400 93.800 212.400 L 99.200 212.400 99.200 211.000 L 99.200 209.600 93.800 209.600 L 88.400 209.600 88.400 211.000 M101.600 211.153 C 101.600 212.270,102.310 212.777,103.900 212.795 C 104.644 212.803,104.526 210.534,103.767 210.243 C 102.294 209.677,101.600 209.969,101.600 211.153 M128.400 215.600 L 128.400 216.800 133.000 216.800 L 137.600 216.800 137.600 215.600 L 137.600 214.400 133.000 214.400 L 128.400 214.400 128.400 215.600 M139.600 215.586 C 139.600 216.334,140.659 217.200,141.574 217.200 C 141.808 217.200,142.000 216.660,142.000 216.000 C 142.000 214.933,141.867 214.800,140.800 214.800 C 139.874 214.800,139.600 214.979,139.600 215.586 M102.700 217.487 C 101.738 217.632,101.600 217.831,101.600 219.073 C 101.600 220.351,101.690 220.469,102.500 220.252 C 102.995 220.119,103.625 220.008,103.900 220.005 C 104.204 220.002,104.400 219.450,104.400 218.600 C 104.400 217.830,104.265 217.227,104.100 217.260 C 103.935 217.293,103.305 217.395,102.700 217.487 M88.400 219.000 L 88.400 220.400 93.800 220.400 L 99.200 220.400 99.200 219.000 L 99.200 217.600 93.800 217.600 L 88.400 217.600 88.400 219.000 M128.400 222.400 L 128.400 223.600 133.000 223.600 L 137.600 223.600 137.600 222.400 L 137.600 221.200 133.000 221.200 L 128.400 221.200 128.400 222.400 M139.867 221.467 C 139.501 221.832,139.529 223.601,139.900 223.595 C 141.185 223.571,142.000 223.012,142.000 222.153 C 142.000 221.217,140.575 220.759,139.867 221.467 M102.900 225.125 C 101.816 225.642,101.600 225.968,101.600 227.083 L 101.600 228.421 102.821 227.789 C 105.069 226.626,105.146 224.053,102.900 225.125 M88.400 226.949 L 88.400 228.321 92.927 228.604 C 98.826 228.973,99.000 228.932,99.000 227.195 L 99.000 225.800 93.700 225.688 L 88.400 225.577 88.400 226.949 M140.489 227.823 C 138.987 228.875,139.258 230.598,140.800 229.800 C 141.643 229.364,142.000 228.885,142.000 228.190 C 142.000 227.038,141.710 226.967,140.489 227.823 M128.400 229.200 L 128.400 230.400 133.000 230.400 L 137.600 230.400 137.600 229.200 L 137.600 228.000 133.000 228.000 L 128.400 228.000 128.400 229.200 M102.700 232.727 C 101.671 233.739,101.135 236.000,101.925 236.000 C 102.678 236.000,104.400 233.688,104.400 232.678 C 104.400 231.343,104.099 231.352,102.700 232.727 M140.700 234.060 C 139.675 234.812,139.116 236.800,139.930 236.800 C 140.625 236.800,142.060 234.841,141.933 234.066 L 141.800 233.254 140.700 234.060 M88.400 235.000 L 88.400 236.400 93.800 236.400 L 99.200 236.400 99.200 235.000 L 99.200 233.600 93.800 233.600 L 88.400 233.600 88.400 235.000 M128.400 236.000 L 128.400 237.200 133.000 237.200 L 137.600 237.200 137.600 236.000 L 137.600 234.800 133.000 234.800 L 128.400 234.800 128.400 236.000 M158.800 242.226 C 158.800 245.038,147.116 257.002,139.194 262.303 C 124.103 272.401,101.292 276.409,85.467 271.741 C 84.744 271.528,82.875 268.820,77.523 260.231 L 74.800 255.862 74.800 249.133 L 74.800 242.404 115.300 242.300 C 137.575 242.243,156.475 242.152,157.300 242.098 C 158.125 242.044,158.800 242.102,158.800 242.226 " stroke="none" fill="#ffffff" fill-rule="evenodd"></path><path id="path1" d="M105.200 137.702 C 105.200 137.819,106.566 141.489,108.235 145.858 C 109.904 150.226,112.438 156.943,113.866 160.785 C 115.295 164.627,116.634 168.089,116.842 168.478 C 117.196 169.140,118.612 169.193,138.381 169.293 L 159.542 169.400 158.691 168.000 C 151.684 156.470,137.706 145.746,123.529 141.021 C 117.586 139.041,105.200 136.798,105.200 137.702 M58.189 166.332 C 34.296 188.198,35.468 186.923,34.945 191.600 C 34.768 193.179,34.922 193.667,36.196 195.571 C 36.994 196.765,41.843 204.325,46.971 212.371 C 57.193 228.411,65.705 241.709,69.522 247.600 L 71.984 251.400 71.992 247.333 C 71.996 245.096,72.109 242.981,72.243 242.633 C 72.409 242.201,71.726 241.299,70.084 239.781 C 68.564 238.377,67.336 236.797,66.741 235.481 L 65.800 233.400 65.686 206.600 C 65.573 180.099,65.581 179.770,66.433 177.108 L 67.295 174.416 64.034 170.045 C 59.796 164.367,60.115 164.570,58.189 166.332 M214.600 193.423 C 210.640 198.822,207.133 203.635,206.806 204.119 C 204.143 208.070,200.670 212.426,200.409 212.144 C 200.233 211.955,195.640 205.680,190.202 198.200 C 184.763 190.720,180.153 184.429,179.957 184.220 C 179.747 183.997,179.600 192.876,179.600 205.720 L 179.600 227.600 183.792 227.600 L 187.985 227.600 188.092 218.627 L 188.200 209.654 194.000 217.678 C 197.190 222.091,199.997 225.975,200.237 226.309 C 200.593 226.803,201.815 225.341,206.837 218.414 L 213.000 209.912 213.108 218.756 L 213.215 227.600 217.608 227.600 L 222.000 227.600 222.000 205.600 C 222.000 193.500,221.955 183.601,221.900 183.603 C 221.845 183.605,218.560 188.024,214.600 193.423 M225.600 184.238 C 225.600 184.517,233.617 199.455,236.446 204.447 L 238.400 207.895 238.400 217.747 L 238.400 227.600 242.600 227.600 L 246.800 227.600 246.830 218.500 C 246.866 207.546,246.700 208.517,249.341 203.712 C 255.302 192.862,256.464 190.732,258.188 187.487 L 260.056 183.975 255.128 184.087 L 250.200 184.200 246.600 190.890 C 244.620 194.569,242.875 197.584,242.723 197.590 C 242.571 197.595,240.800 194.540,238.788 190.800 L 235.131 184.000 230.365 184.000 C 227.744 184.000,225.600 184.107,225.600 184.238 " stroke="none" fill="#f5456b" fill-rule="evenodd"></path><path id="path2" d="M149.800 157.200 C 151.106 158.520,152.265 159.600,152.375 159.600 C 152.485 159.600,151.506 158.520,150.200 157.200 C 148.894 155.880,147.735 154.800,147.625 154.800 C 147.515 154.800,148.494 155.880,149.800 157.200 M57.775 166.500 L 56.600 167.800 57.900 166.625 C 59.112 165.530,59.384 165.200,59.075 165.200 C 59.006 165.200,58.421 165.785,57.775 166.500 M179.200 205.400 C 179.200 217.683,179.287 227.646,179.393 227.540 C 179.659 227.274,179.679 183.546,179.413 183.280 C 179.296 183.163,179.200 193.117,179.200 205.400 M37.381 185.300 L 35.800 187.000 37.500 185.419 C 38.435 184.549,39.200 183.784,39.200 183.719 C 39.200 183.416,38.852 183.719,37.381 185.300 M246.972 218.400 C 246.972 223.570,247.029 225.685,247.099 223.100 C 247.168 220.515,247.168 216.285,247.099 213.700 C 247.029 211.115,246.972 213.230,246.972 218.400 M72.150 247.000 C 72.151 249.420,72.216 250.358,72.296 249.085 C 72.376 247.812,72.375 245.832,72.294 244.685 C 72.214 243.538,72.149 244.580,72.150 247.000 " stroke="none" fill="#e5889b" fill-rule="evenodd"></path><path id="path3" d="M77.769 141.759 C 62.148 147.433,48.174 159.975,40.655 175.071 C 37.765 180.874,37.832 181.007,41.842 177.401 C 49.327 170.671,63.716 157.525,71.168 150.609 C 75.440 146.644,79.670 142.732,80.568 141.916 C 82.560 140.105,82.353 140.094,77.769 141.759 M327.751 188.400 C 327.751 190.930,327.816 191.965,327.896 190.700 C 327.975 189.435,327.975 187.365,327.896 186.100 C 327.816 184.835,327.751 185.870,327.751 188.400 M88.154 201.777 C 88.032 202.094,88.017 202.679,88.120 203.077 C 88.245 203.558,88.323 203.439,88.354 202.720 C 88.398 201.695,88.517 201.633,90.700 201.496 L 93.000 201.351 90.687 201.276 C 88.990 201.220,88.316 201.353,88.154 201.777 M129.105 207.483 C 129.602 207.579,130.322 207.575,130.705 207.475 C 131.087 207.375,130.680 207.296,129.800 207.301 C 128.920 207.305,128.607 207.387,129.105 207.483 M96.705 212.683 C 97.202 212.779,97.922 212.775,98.305 212.675 C 98.687 212.575,98.280 212.496,97.400 212.501 C 96.520 212.505,96.207 212.587,96.705 212.683 M95.100 220.689 C 95.815 220.778,96.985 220.778,97.700 220.689 C 98.415 220.601,97.830 220.528,96.400 220.528 C 94.970 220.528,94.385 220.601,95.100 220.689 M115.300 242.300 L 74.800 242.404 74.800 249.133 L 74.800 255.862 77.523 260.231 C 82.875 268.820,84.744 271.528,85.467 271.741 C 101.292 276.409,124.103 272.401,139.194 262.303 C 146.573 257.366,155.633 248.370,158.361 243.274 C 159.008 242.065,158.941 241.991,157.300 242.098 C 156.475 242.152,137.575 242.243,115.300 242.300 " stroke="none" fill="#8ac544" fill-rule="evenodd"></path><path id="path4" d="M97.600 137.618 C 95.730 137.787,92.882 138.109,91.271 138.334 L 88.342 138.742 84.471 142.286 C 82.342 144.234,76.496 149.585,71.481 154.177 C 65.894 159.291,62.442 162.731,62.567 163.059 C 62.680 163.353,64.248 165.564,66.050 167.972 L 69.329 172.350 70.964 171.238 C 73.951 169.208,74.049 169.200,94.460 169.200 C 110.007 169.200,113.600 169.101,113.600 168.674 C 113.600 168.385,112.408 165.010,110.952 161.174 C 109.495 157.338,107.811 152.850,107.210 151.200 C 103.346 140.603,101.858 137.121,101.251 137.256 C 101.113 137.286,99.470 137.450,97.600 137.618 M273.245 184.632 C 267.765 186.106,262.218 190.628,259.545 195.800 C 249.095 216.019,272.407 236.652,291.370 223.969 C 295.035 221.517,295.030 222.006,291.424 218.424 L 288.448 215.468 287.000 216.573 C 278.493 223.062,265.943 216.806,265.874 206.043 C 265.805 195.385,277.705 189.057,286.474 195.088 L 288.507 196.487 291.553 193.426 L 294.600 190.366 293.200 189.194 C 288.047 184.880,279.549 182.937,273.245 184.632 M297.200 188.400 L 297.200 192.800 302.600 192.800 L 308.000 192.800 308.000 210.200 L 308.000 227.600 312.400 227.600 L 316.800 227.600 316.800 210.200 L 316.800 192.800 322.200 192.800 L 327.600 192.800 327.600 188.400 L 327.600 184.000 312.400 184.000 L 297.200 184.000 297.200 188.400 M330.801 184.300 C 330.802 184.465,331.131 185.140,331.532 185.800 C 331.933 186.460,334.812 191.710,337.930 197.466 L 343.600 207.932 343.600 217.766 L 343.600 227.600 348.000 227.600 L 352.400 227.600 352.400 217.798 L 352.400 207.997 358.615 196.591 C 362.034 190.318,364.935 184.913,365.063 184.580 C 365.264 184.056,364.634 183.990,360.391 184.087 L 355.486 184.200 351.876 190.900 C 347.811 198.444,348.060 198.193,346.897 195.900 C 345.847 193.829,342.688 188.024,341.347 185.700 L 340.366 184.000 335.583 184.000 C 332.952 184.000,330.801 184.135,330.801 184.300 M86.097 214.900 L 86.200 239.800 95.800 239.800 L 105.400 239.800 105.503 218.140 L 105.607 196.480 102.960 193.240 L 100.313 190.000 93.154 190.000 L 85.994 190.000 86.097 214.900 M99.124 194.968 L 99.248 196.400 93.868 196.400 L 88.488 196.400 88.323 194.988 C 88.115 193.212,87.491 193.389,93.666 193.468 L 99.000 193.536 99.124 194.968 M103.328 195.416 C 104.062 196.300,104.411 197.128,104.328 197.789 L 104.200 198.805 102.900 197.690 C 101.933 196.862,101.600 196.246,101.600 195.288 C 101.600 193.680,101.905 193.703,103.328 195.416 M126.400 218.800 L 126.400 240.000 134.800 240.000 L 143.200 240.000 143.200 221.621 L 143.200 203.242 141.195 200.832 C 138.515 197.612,138.481 197.600,132.026 197.600 L 126.400 197.600 126.400 218.800 M33.787 200.063 C 30.697 222.183,42.782 247.683,63.000 261.705 C 67.662 264.939,79.535 270.647,80.162 269.957 C 80.240 269.871,75.820 262.780,70.338 254.200 C 64.857 245.620,59.683 237.520,58.841 236.200 C 50.552 223.209,34.654 198.528,34.404 198.263 C 34.229 198.077,33.951 198.887,33.787 200.063 M137.600 202.000 L 137.600 203.200 133.000 203.200 L 128.400 203.200 128.400 202.000 L 128.400 200.800 133.000 200.800 L 137.600 200.800 137.600 202.000 M97.100 201.598 L 99.200 201.600 99.200 203.011 L 99.200 204.423 93.700 204.311 C 88.287 204.202,88.198 204.185,88.068 203.271 C 87.783 201.254,88.145 201.062,91.710 201.339 C 93.519 201.480,95.945 201.596,97.100 201.598 M141.074 202.070 C 141.645 202.606,142.000 203.402,142.000 204.145 L 142.000 205.350 140.800 204.200 C 140.140 203.568,139.600 202.634,139.600 202.125 C 139.600 200.975,139.897 200.964,141.074 202.070 M103.220 202.610 C 104.192 203.113,104.400 203.472,104.400 204.647 L 104.400 206.074 103.100 205.317 C 102.131 204.754,101.768 204.235,101.675 203.281 C 101.531 201.815,101.613 201.779,103.220 202.610 M135.100 207.597 L 137.600 207.600 137.600 208.800 L 137.600 210.000 133.000 210.000 L 128.400 210.000 128.400 208.544 L 128.400 207.089 130.500 207.341 C 131.655 207.480,133.725 207.595,135.100 207.597 M142.000 210.033 L 142.000 211.245 140.800 210.536 C 139.920 210.016,139.600 209.528,139.600 208.703 C 139.600 207.583,139.604 207.582,140.800 208.200 C 141.733 208.682,142.000 209.090,142.000 210.033 M99.124 211.100 L 99.000 212.600 93.800 212.457 C 88.058 212.299,87.969 212.271,88.277 210.700 L 88.493 209.600 93.871 209.600 L 99.248 209.600 99.124 211.100 M104.297 210.400 C 104.354 210.400,104.400 210.940,104.400 211.600 C 104.400 212.833,103.727 213.131,102.233 212.557 C 100.802 212.008,101.433 209.608,102.897 210.028 C 103.611 210.233,104.241 210.400,104.297 210.400 M134.500 214.396 L 137.600 214.400 137.600 215.600 L 137.600 216.800 133.000 216.800 L 128.400 216.800 128.400 215.348 L 128.400 213.895 129.900 214.143 C 130.725 214.280,132.795 214.393,134.500 214.396 M142.000 216.000 C 142.000 217.289,141.018 217.658,140.080 216.720 C 139.142 215.782,139.511 214.800,140.800 214.800 C 141.867 214.800,142.000 214.933,142.000 216.000 M104.400 218.553 C 104.400 219.884,103.786 220.376,102.100 220.395 C 101.116 220.405,101.491 217.677,102.500 217.482 C 104.314 217.133,104.400 217.181,104.400 218.553 M99.200 218.976 C 99.200 220.858,99.054 220.899,93.383 220.576 C 88.609 220.304,88.378 220.250,88.156 219.368 C 87.747 217.738,88.190 217.600,93.824 217.600 L 99.200 217.600 99.200 218.976 M141.929 223.004 C 141.024 223.909,139.600 223.583,139.600 222.470 C 139.600 220.848,141.712 220.364,141.930 221.937 C 142.002 222.452,142.001 222.932,141.929 223.004 M137.600 222.400 L 137.600 223.600 133.000 223.600 L 128.400 223.600 128.400 222.400 L 128.400 221.200 133.000 221.200 L 137.600 221.200 137.600 222.400 M104.400 225.573 C 104.400 226.616,102.783 228.400,101.838 228.400 C 101.000 228.400,101.704 225.738,102.701 225.137 C 104.242 224.206,104.400 224.247,104.400 225.573 M99.124 227.100 L 99.000 228.600 96.200 228.728 C 94.660 228.799,92.275 228.739,90.900 228.596 L 88.400 228.336 88.400 226.968 L 88.400 225.600 93.824 225.600 L 99.248 225.600 99.124 227.100 M142.000 228.154 C 142.000 228.966,140.604 230.400,139.814 230.400 C 139.325 230.400,139.650 228.608,140.262 227.931 C 141.185 226.912,142.000 227.016,142.000 228.154 M137.600 229.200 L 137.600 230.400 133.000 230.400 L 128.400 230.400 128.400 229.200 L 128.400 228.000 133.000 228.000 L 137.600 228.000 137.600 229.200 M103.030 235.157 L 101.600 236.587 101.600 235.212 C 101.600 234.205,101.947 233.479,102.900 232.492 L 104.200 231.145 104.330 232.436 C 104.435 233.476,104.182 234.005,103.030 235.157 M142.000 234.074 C 142.000 234.931,140.581 236.800,139.930 236.800 C 139.266 236.800,139.624 235.026,140.470 234.126 C 141.558 232.968,142.000 232.953,142.000 234.074 M99.200 235.000 L 99.200 236.400 93.867 236.400 C 87.896 236.400,88.072 236.451,88.314 234.802 L 88.491 233.600 93.845 233.600 L 99.200 233.600 99.200 235.000 M137.525 236.100 C 137.456 236.815,137.265 237.355,137.100 237.300 C 136.935 237.245,134.910 237.200,132.600 237.200 L 128.400 237.200 128.400 236.000 L 128.400 234.800 133.025 234.800 L 137.651 234.800 137.525 236.100 " stroke="none" fill="#45c2c6" fill-rule="evenodd"></path></g></svg>